<?xml version="1.0" encoding="UTF-8"?>
<svg width="40pt" height="40pt" version="1.1" viewBox="0 0 1200 1200" xmlns="http://www.w3.org/2000/svg">
 <defs>
   <linearGradient id="Gradient1">
     <stop stop-color="#ac99ff" offset="0%" />     
     <stop stop-color="#8297ff" offset="30%" />
     <stop stop-color="#8cddff" offset="70%" />
     <stop stop-color="#7bffe0" offset="100%" />
   </linearGradient>
 </defs>
 <path d="m314.11 492c0 15.047-22.828 15.047-22.828 0v-188.76c0-6.3281 5.1094-11.438 11.438-11.438h188.76c15.047 0 15.047 22.828 0 22.828h-177.37zm393.71 72.047c32.016 0 48.141 38.859 25.5 61.547-22.641 22.641-61.547 6.5156-61.547-25.5 0-19.922 16.125-36.047 36.047-36.047zm9.3281 26.719c-8.2969-8.2969-22.547-2.3906-22.547 9.3281s14.25 17.625 22.547 9.3281c5.1562-5.1562 5.1562-13.5 0-18.656zm-115.03-26.719c32.016 0 48.141 38.859 25.5 61.547-22.641 22.641-61.547 6.5156-61.547-25.5 0-19.922 16.172-36.047 36.047-36.047zm9.375 26.719c-8.2969-8.2969-22.547-2.3906-22.547 9.3281s14.25 17.625 22.547 9.3281c5.1094-5.1562 5.1094-13.5 0-18.656zm-115.03-26.719c32.016 0 48.141 38.859 25.5 61.547-22.641 22.641-61.547 6.5156-61.547-25.5 0-19.922 16.125-36.047 36.047-36.047zm9.3281 26.719c-8.2969-8.2969-22.547-2.3906-22.547 9.3281s14.25 17.625 22.547 9.3281c5.1562-5.1562 5.1562-13.5 0-18.656zm588.14-67.594 59.297 34.266c3.6562 2.1094 5.7188 5.9062 5.7188 9.8438h0.046875v68.625c0 4.5938-2.7188 8.5781-6.6562 10.406l-28.781 16.594v0.046875l-29.719 17.156c-3.7031 2.1562-8.1094 1.9688-11.531-0.09375l-59.297-34.266c-3.6562-2.1094-5.7188-5.9062-5.7188-9.8438h-0.046875v-68.625c0-4.5469 2.625-8.4375 6.4219-10.266l58.734-33.891c3.6562-2.1562 8.0625-1.9688 11.531 0.046875zm18.141 36.797-24-13.875-48.047 27.703v55.547l48.047 27.703 24-13.875 24-13.828v-55.594zm-999.52-32.859c39.469 0 71.484 32.016 71.484 71.484s-32.016 71.484-71.484 71.484-71.484-32.016-71.484-71.484c0-39.516 32.016-71.484 71.484-71.484zm34.359 37.078c-30.562-30.562-83.016-8.8125-83.016 34.359 0 43.219 52.453 64.922 83.016 34.406 18.984-18.984 18.984-49.781 0-68.766zm465.14-518.02 34.641 60.047h0.046875l34.734 60.141c4.4531 7.6875-1.2188 17.109-9.8438 17.109v0.046875l-138.98-0.046875c-8.4844 0-14.766-9.3281-9.4688-17.812l34.359-59.484 34.734-60.094c4.4531-7.7344 15.516-7.5 19.781 0.09375zm14.953 71.391-24.891-43.078-49.734 86.156h99.422l-24.797-43.031h0.046875zm-335.26 469.6c15.047 0 15.047 22.828 0 22.828h-71.109c-15.047 0-15.047-22.828 0-22.828zm295.92 321.79c0-15.047 22.828-15.047 22.828 0v71.109c0 15.047-22.828 15.047-22.828 0zm321.79-295.92c-15.047 0-15.047-22.828 0-22.828h71.109c15.047 0 15.047 22.828 0 22.828zm-381.84 535.18v-120.1c0-6.3281 5.1094-11.438 11.438-11.438h120.1c6.3281 0 11.438 5.1094 11.438 11.438v120.1c0 6.3281-5.1094 11.438-11.438 11.438h-120.1c-6.3281-0.046875-11.438-5.1562-11.438-11.438zm22.828-108.66v97.266h97.266v-97.266zm63.094-748.31c0 15.047-22.828 15.047-22.828 0v-71.109c0-15.047 22.828-15.047 22.828 0zm-162.94 158.86c-82.828 82.828-82.828 217.18 0 300 71.859 71.859 183.61 82.031 266.68 27.234l28.125 28.125c-1.875 19.5 4.6875 39.516 19.359 54.188l66.375 66.375c10.781 10.781 28.359 10.781 39.141 0l56.203-56.203c10.781-10.781 10.781-28.359 0-39.141l-66.375-66.375c-14.672-14.672-34.734-21.281-54.234-19.359l-28.172-28.031c54.891-83.062 44.766-194.9-27.141-266.81-82.828-82.875-217.13-82.828-299.95 0zm313.4 285.28 17.016 16.922c-12.047 6.3281-21.891 16.219-28.219 28.219l-16.969-16.969c10.219-8.5312 19.641-17.906 28.172-28.172zm-163.4-324.56c-104.53 0-189.28 84.75-189.28 189.28 0 104.53 84.75 189.28 189.28 189.28 104.53 0 189.28-84.75 189.28-189.28 0-104.58-84.75-189.28-189.28-189.28zm180.32 369.61c17.344-17.297 45.703-17.297 63.047 0l66.375 66.375c1.875 1.875 1.875 4.9688 0 6.8438l-56.203 56.203c-1.875 1.875-4.9688 1.875-6.8438 0l-66.375-66.375c-17.344-17.344-17.344-45.75 0-63.047zm-68.156-465.74c-15.047 0-15.047-22.828 0-22.828h188.76c6.3281 0 11.438 5.1094 11.438 11.438v188.76c0 15.047-22.828 15.047-22.828 0v-177.37zm-221.29 576c15.047 0 15.047 22.828 0 22.828h-188.81c-6.3281 0-11.438-5.1094-11.438-11.438l0.046875-188.76c0-15.047 22.828-15.047 22.828 0v177.37z" fill-rule="evenodd" fill="url(#Gradient1)"/>
</svg>
